<?xml version="1.0" standalone="no"?>
<!DOCTYPE svg PUBLIC "-//W3C//DTD SVG 20010904//EN"
 "http://www.w3.org/TR/2001/REC-SVG-20010904/DTD/svg10.dtd">
<svg version="1.0" xmlns="http://www.w3.org/2000/svg"
 width="1280.000000pt" height="1280.000000pt" viewBox="0 0 1280.000000 1280.000000"
 preserveAspectRatio="xMidYMid meet">
<metadata>
Created by potrace 1.14, written by Peter Selinger 2001-2017
</metadata>
<g transform="translate(0.000000,1280.000000) scale(0.100000,-0.100000)"
fill="#000000" stroke="none">
<path d="M1600 9822 l0 -2979 366 1 c201 1 368 -2 371 -7 2 -4 10 -4 16 0 17
10 137 11 143 1 3 -5 11 -5 17 -1 17 10 137 11 143 1 3 -5 11 -5 17 -1 16 10
137 11 143 1 3 -4 13 -4 22 0 22 10 783 9 800 -1 6 -5 12 -4 12 0 0 5 38 8 85
8 l86 -1 -1 135 c0 75 0 183 -1 241 -1 58 -1 111 0 118 1 6 1 18 2 25 1 6 1
60 0 120 -1 59 -1 155 -2 215 -1 59 -1 113 0 120 1 6 1 18 2 25 1 6 1 60 0
120 -1 59 -1 155 -2 215 -1 59 -1 113 0 120 1 6 1 18 2 25 1 6 1 60 0 120 -1
59 -1 155 -2 215 -1 59 -1 114 -1 122 0 8 0 350 0 760 0 410 1 751 1 758 1 6
1 18 2 25 1 6 1 60 0 120 -1 59 -1 155 -2 215 -1 59 -1 114 0 122 0 8 1 39 0
68 0 36 4 52 13 53 64 4 1445 -1 1548 -6 188 -8 341 -19 420 -29 19 -2 60 -7
90 -11 47 -6 160 -23 265 -41 17 -3 41 -7 55 -9 14 -2 32 -6 40 -9 8 -3 26 -8
40 -10 14 -3 35 -7 48 -10 12 -4 30 -8 40 -10 57 -13 149 -39 227 -65 88 -29
115 -39 185 -69 19 -8 37 -15 40 -15 11 1 200 -99 271 -144 71 -44 250 -184
244 -191 -1 -1 16 -21 39 -45 145 -149 279 -400 332 -616 2 -9 8 -34 13 -56
12 -51 21 -93 26 -125 2 -14 6 -36 9 -50 5 -23 9 -62 22 -210 8 -100 8 -434 0
-505 -5 -38 -9 -80 -9 -92 -1 -13 -3 -23 -6 -23 -4 0 -7 -16 -9 -35 -1 -19
-13 -77 -27 -128 -14 -50 -27 -96 -28 -102 -2 -5 -5 -14 -8 -20 -4 -5 -12 -31
-20 -57 -7 -27 -16 -48 -20 -48 -4 0 -10 -16 -13 -35 -4 -19 -11 -35 -16 -35
-6 0 -10 -9 -10 -20 0 -11 -5 -20 -12 -20 -6 0 -9 -3 -5 -6 6 -7 -46 -107 -71
-136 -8 -10 -12 -18 -8 -18 8 0 -43 -71 -59 -82 -7 -5 -7 -8 0 -8 7 0 7 -3 0
-8 -6 -4 -24 -25 -40 -47 -32 -43 -57 -74 -92 -113 -13 -14 -23 -29 -23 -34 0
-5 -4 -6 -10 -3 -5 3 -10 2 -10 -3 0 -40 -301 -262 -356 -262 -8 0 -14 -4 -14
-10 0 -5 -8 -10 -18 -10 -10 0 -26 -6 -37 -14 -18 -12 -281 -106 -309 -110 -6
-1 -17 -5 -23 -9 -7 -5 -17 -6 -22 -2 -5 3 -12 1 -15 -4 -3 -4 -25 -12 -48
-16 -44 -8 -54 -11 -63 -15 -3 -1 -9 -4 -15 -5 -5 -1 -11 -3 -12 -4 -2 -1 -18
-4 -37 -7 -19 -2 -53 -9 -75 -15 -23 -6 -51 -13 -63 -15 -24 -4 -37 -7 -131
-23 -31 -6 -73 -13 -92 -16 -19 -3 -48 -8 -63 -11 -16 -3 -52 -7 -80 -9 -29
-2 -52 -5 -52 -5 0 -4 -120 -20 -200 -25 -22 -2 -40 -4 -40 -5 0 -1 -25 -3
-55 -6 -247 -19 -445 -27 -687 -28 -146 -1 -219 -4 -214 -11 5 -5 25 -41 45
-78 20 -37 45 -83 56 -101 10 -19 42 -78 71 -132 28 -55 59 -107 67 -116 8
-10 11 -18 6 -18 -5 0 -4 -4 1 -8 6 -4 23 -32 40 -62 16 -30 39 -73 52 -95 12
-22 28 -51 35 -65 7 -14 16 -28 21 -31 5 -3 9 -10 9 -15 1 -5 6 -18 13 -29 7
-11 19 -32 26 -47 8 -15 42 -78 77 -139 34 -61 62 -114 62 -119 0 -5 3 -10 8
-12 4 -1 17 -22 30 -45 12 -24 32 -62 45 -85 12 -24 25 -44 30 -46 4 -2 7 -10
7 -18 0 -8 5 -14 10 -14 6 0 10 -9 10 -19 0 -11 3 -21 8 -23 4 -1 18 -23 31
-48 55 -105 66 -125 73 -130 4 -3 12 -17 17 -30 6 -14 15 -32 20 -40 14 -22
74 -127 105 -182 48 -88 79 -143 98 -173 10 -16 21 -37 25 -45 4 -8 40 -72 80
-142 40 -70 73 -130 73 -134 0 -4 6 -15 14 -23 7 -9 27 -41 43 -71 17 -30 39
-71 50 -90 11 -19 35 -62 54 -95 18 -33 37 -61 41 -63 4 -2 8 -12 8 -23 0 -10
3 -19 8 -19 4 0 18 -21 32 -47 14 -27 42 -76 62 -110 21 -35 38 -67 38 -73 0
-5 5 -10 10 -10 6 0 10 -4 10 -9 0 -7 94 -172 192 -340 16 -25 33 -57 40 -71
7 -14 15 -27 19 -30 3 -3 16 -25 30 -50 13 -25 27 -46 32 -48 4 -2 7 -8 7 -13
0 -5 18 -39 40 -75 22 -36 40 -70 40 -75 0 -5 4 -9 9 -9 5 0 14 -15 22 -32 7
-18 16 -35 19 -38 3 -3 28 -43 54 -90 27 -47 64 -108 82 -137 19 -28 34 -56
34 -62 0 -6 5 -11 10 -11 6 0 10 -5 10 -11 0 -6 18 -38 40 -71 22 -33 40 -64
40 -68 0 -4 9 -19 21 -34 11 -14 18 -26 14 -26 -4 0 1 -7 9 -16 9 -8 16 -21
16 -29 0 -7 7 -15 15 -19 8 -3 15 -10 15 -16 0 -6 12 -29 27 -53 47 -72 52
-81 59 -99 3 -10 10 -18 15 -18 5 0 9 -5 9 -10 0 -6 23 -44 50 -86 27 -41 50
-77 50 -79 0 -6 97 -156 111 -173 6 -7 16 -23 23 -35 6 -12 34 -55 61 -96 28
-40 55 -81 60 -90 6 -9 12 -18 15 -21 3 -3 17 -21 30 -40 13 -19 29 -38 35
-42 5 -4 6 -8 2 -8 -6 0 61 -89 158 -208 86 -107 374 -392 395 -392 5 0 10 -4
10 -9 0 -5 47 -46 105 -91 58 -46 105 -87 105 -92 0 -5 4 -7 9 -4 4 3 23 -8
41 -24 19 -17 37 -30 40 -30 4 0 20 -11 36 -25 16 -14 32 -25 36 -25 4 0 13
-6 20 -13 25 -24 271 -179 363 -228 22 -12 43 -26 46 -31 3 -5 9 -9 13 -8 6 1
129 -63 264 -137 23 -12 49 -23 57 -23 8 0 15 -4 15 -10 0 -5 3 -9 8 -8 4 1
39 -13 77 -31 39 -18 111 -51 160 -72 50 -22 99 -44 110 -49 53 -24 172 -72
187 -75 10 -2 32 -10 50 -18 18 -8 49 -20 68 -27 19 -7 44 -16 55 -20 34 -15
289 -101 309 -106 11 -2 54 -15 95 -28 71 -23 166 -50 166 -47 0 1 26 -7 57
-18 51 -18 86 -20 328 -21 l270 -1 0 124 0 124 -65 102 c-36 57 -65 106 -65
111 0 5 -4 10 -8 12 -4 1 -49 68 -99 148 -51 80 -97 150 -102 157 -6 7 -11 17
-11 23 0 5 -4 10 -10 10 -5 0 -10 4 -10 10 0 5 -29 54 -65 109 -36 54 -65 103
-65 109 0 6 -4 12 -8 14 -8 3 -238 358 -256 395 -6 13 -14 23 -18 23 -5 0 -8
7 -8 15 0 8 -4 15 -10 15 -5 0 -10 7 -10 15 0 8 -3 15 -8 15 -4 0 -12 9 -17
19 -16 32 -78 135 -88 146 -4 6 -31 46 -59 90 -28 44 -64 99 -80 123 -15 24
-28 47 -28 53 0 5 -4 9 -9 9 -5 0 -14 14 -21 30 -7 17 -16 30 -21 30 -5 0 -9
5 -9 11 0 5 -18 37 -40 69 -22 32 -40 64 -40 69 0 6 -4 11 -10 11 -5 0 -10 4
-10 10 0 5 -7 18 -15 27 -8 10 -15 22 -14 27 0 5 -3 12 -8 15 -8 5 -129 191
-166 256 -7 11 -14 22 -17 25 -7 7 -104 158 -126 197 -10 18 -22 33 -26 33 -4
0 -8 4 -8 9 0 9 -78 140 -90 151 -3 3 -32 48 -65 100 -32 52 -92 146 -132 207
-40 62 -73 117 -73 122 0 5 -4 11 -8 13 -4 1 -27 35 -51 73 -24 39 -63 99 -86
135 -129 200 -203 316 -226 353 -39 62 -114 179 -184 287 -34 53 -68 107 -75
120 -7 14 -16 27 -20 30 -3 3 -50 75 -104 160 -53 85 -128 202 -166 260 -39
58 -73 112 -77 120 -4 8 -35 58 -68 110 -141 217 -175 271 -175 280 0 6 -4 10
-9 10 -5 0 -14 14 -21 30 -7 17 -16 30 -21 30 -5 0 -9 6 -9 13 0 7 -9 23 -20
35 -11 12 -20 24 -20 28 0 4 -21 38 -46 76 -45 66 -46 69 -28 83 10 8 23 15
29 15 11 0 368 178 440 220 28 16 61 35 75 43 47 26 235 142 240 147 3 3 50
37 105 74 55 38 102 73 103 78 2 4 8 8 13 8 5 0 17 8 28 18 10 9 31 27 47 39
16 12 40 31 54 43 14 12 43 36 65 53 49 39 360 351 395 395 14 18 32 41 41 50
8 9 31 37 49 62 19 25 39 51 45 58 5 7 17 21 25 31 8 9 24 33 34 52 11 19 23
36 27 39 11 8 123 189 163 265 21 39 42 77 47 85 19 31 102 215 102 228 0 6 3
12 7 12 4 0 7 6 8 13 0 6 21 67 46 133 38 103 84 252 101 329 3 11 9 40 15 65
5 25 12 56 15 70 2 14 9 48 15 75 6 28 13 70 16 95 3 25 7 52 9 60 2 8 7 42
11 75 3 33 8 68 9 77 18 94 25 598 12 788 -11 158 -21 260 -31 328 -3 23 -8
61 -11 85 -3 23 -8 53 -10 67 -3 14 -7 40 -10 59 -3 19 -7 37 -9 40 -2 3 -7
26 -10 51 -5 37 -30 146 -62 265 -3 11 -7 31 -10 44 -3 13 -9 32 -15 43 -5 10
-8 18 -5 18 2 0 -12 44 -31 98 -19 53 -38 108 -43 122 -11 35 -99 238 -118
275 -9 17 -15 33 -14 38 1 4 -3 7 -9 7 -5 0 -8 4 -4 9 3 5 1 12 -5 16 -6 3
-17 21 -25 38 -18 40 -71 134 -96 169 -10 14 -19 31 -19 36 0 6 -3 12 -7 14
-5 2 -30 37 -58 78 -47 70 -143 193 -210 270 -45 51 -264 270 -270 270 -3 0
-24 16 -45 36 -22 20 -50 44 -62 52 -13 9 -25 19 -28 22 -3 4 -43 35 -90 68
-47 34 -90 65 -96 69 -5 4 -19 13 -30 20 -165 101 -217 132 -259 153 -27 14
-51 28 -53 33 -2 4 -10 7 -18 7 -8 0 -14 5 -14 12 0 6 -3 9 -6 6 -3 -3 -46 14
-95 38 -49 24 -96 44 -104 44 -8 0 -15 4 -15 10 0 5 -19 14 -42 21 -24 6 -47
14 -53 18 -5 4 -37 18 -70 30 -33 13 -69 27 -80 32 -11 4 -63 22 -115 39 -52
17 -102 34 -110 37 -8 3 -20 7 -26 8 -6 2 -48 14 -95 28 -85 26 -225 64 -266
72 -13 3 -33 7 -45 9 -13 3 -38 9 -55 15 -18 5 -33 7 -33 4 0 -3 -6 0 -13 6
-8 6 -16 9 -18 6 -3 -2 -22 1 -44 6 -22 5 -49 11 -60 13 -11 2 -36 7 -55 10
-19 4 -59 11 -89 16 -35 6 -1025 10 -2688 10 l-2633 0 0 -2978z"/>
</g>
</svg>
